<svg viewBox="0 0 24 24" xmlns="http://www.w3.org/2000/svg" fill="none">
  <!-- Kitap sol kapak / sırt -->
  <line x1="11" y1="4" x2="11" y2="20" stroke="currentColor" stroke-width="1.25" stroke-linecap="round"/>
  <!-- Sol sayfa -->
  <path d="M11,5 C9,5 6,5.5 5,6.5 L5,19 C6,18.2 9,18 11,18"
        stroke="currentColor" stroke-width="1.25" stroke-linecap="round" stroke-linejoin="round"/>
  <!-- Sağ sayfa -->
  <path d="M11,5 C13,5 16,5.5 17,6.5 L17,19 C16,18.2 13,18 11,18"
        stroke="currentColor" stroke-width="1.25" stroke-linecap="round" stroke-linejoin="round"/>
  <!-- Sol sayfa çizgiler -->
  <line x1="6.5" y1="9" x2="9.5" y2="9" stroke="currentColor" stroke-width="0.9" stroke-linecap="round" opacity="0.6"/>
  <line x1="6.5" y1="11.5" x2="9.5" y2="11.5" stroke="currentColor" stroke-width="0.9" stroke-linecap="round" opacity="0.6"/>
  <line x1="6.5" y1="14" x2="9.5" y2="14" stroke="currentColor" stroke-width="0.9" stroke-linecap="round" opacity="0.6"/>
  <!-- Sağ sayfa - küçük yıldız -->
  <line x1="14" y1="9" x2="14" y2="11.5" stroke="currentColor" stroke-width="1" stroke-linecap="round" opacity="0.7"/>
  <line x1="12.75" y1="10.25" x2="15.25" y2="10.25" stroke="currentColor" stroke-width="1" stroke-linecap="round" opacity="0.7"/>
  <line x1="13.2" y1="9.2" x2="14.8" y2="11.3" stroke="currentColor" stroke-width="0.75" stroke-linecap="round" opacity="0.5"/>
  <line x1="14.8" y1="9.2" x2="13.2" y2="11.3" stroke="currentColor" stroke-width="0.75" stroke-linecap="round" opacity="0.5"/>
</svg>
