<svg viewBox="0 0 320 320" xmlns="http://www.w3.org/2000/svg" fill="none">
  <defs>
    <!-- Seamless tile için repeat edilebilir pattern -->
    <pattern id="stars" x="0" y="0" width="320" height="320" patternUnits="userSpaceOnUse">

      <!-- Nokta yıldızlar - farklı boyutlar ve opaklıklar -->
      <circle cx="18" cy="24" r="0.8" fill="#D4AF5F" opacity="0.25"/>
      <circle cx="67" cy="8" r="0.5" fill="#D4AF5F" opacity="0.15"/>
      <circle cx="142" cy="19" r="1" fill="#D4AF5F" opacity="0.2"/>
      <circle cx="198" cy="6" r="0.6" fill="#D4AF5F" opacity="0.18"/>
      <circle cx="251" cy="31" r="0.8" fill="#D4AF5F" opacity="0.22"/>
      <circle cx="304" cy="14" r="0.5" fill="#D4AF5F" opacity="0.15"/>

      <circle cx="43" cy="58" r="0.6" fill="#D4AF5F" opacity="0.18"/>
      <circle cx="89" cy="72" r="1.2" fill="#D4AF5F" opacity="0.28"/>
      <circle cx="163" cy="51" r="0.5" fill="#D4AF5F" opacity="0.14"/>
      <circle cx="220" cy="79" r="0.9" fill="#D4AF5F" opacity="0.22"/>
      <circle cx="278" cy="63" r="0.6" fill="#D4AF5F" opacity="0.17"/>
      <circle cx="315" cy="88" r="0.4" fill="#D4AF5F" opacity="0.12"/>

      <circle cx="7" cy="112" r="0.7" fill="#D4AF5F" opacity="0.2"/>
      <circle cx="54" cy="98" r="0.5" fill="#D4AF5F" opacity="0.14"/>
      <circle cx="118" cy="105" r="1" fill="#D4AF5F" opacity="0.24"/>
      <circle cx="176" cy="118" r="0.6" fill="#D4AF5F" opacity="0.18"/>
      <circle cx="234" cy="94" r="0.8" fill="#D4AF5F" opacity="0.2"/>
      <circle cx="292" cy="119" r="0.5" fill="#D4AF5F" opacity="0.15"/>

      <circle cx="29" cy="156" r="0.9" fill="#D4AF5F" opacity="0.22"/>
      <circle cx="76" cy="143" r="0.5" fill="#D4AF5F" opacity="0.15"/>
      <circle cx="133" cy="167" r="0.7" fill="#D4AF5F" opacity="0.19"/>
      <circle cx="199" cy="152" r="1.1" fill="#D4AF5F" opacity="0.26"/>
      <circle cx="259" cy="171" r="0.5" fill="#D4AF5F" opacity="0.14"/>
      <circle cx="308" cy="148" r="0.8" fill="#D4AF5F" opacity="0.21"/>

      <circle cx="14" cy="198" r="0.6" fill="#D4AF5F" opacity="0.17"/>
      <circle cx="61" cy="214" r="0.9" fill="#D4AF5F" opacity="0.23"/>
      <circle cx="107" cy="201" r="0.5" fill="#D4AF5F" opacity="0.13"/>
      <circle cx="158" cy="219" r="0.7" fill="#D4AF5F" opacity="0.19"/>
      <circle cx="218" cy="205" r="1" fill="#D4AF5F" opacity="0.24"/>
      <circle cx="274" cy="222" r="0.6" fill="#D4AF5F" opacity="0.16"/>

      <circle cx="38" cy="259" r="0.8" fill="#D4AF5F" opacity="0.21"/>
      <circle cx="83" cy="242" r="0.5" fill="#D4AF5F" opacity="0.14"/>
      <circle cx="148" cy="257" r="1.2" fill="#D4AF5F" opacity="0.27"/>
      <circle cx="207" cy="268" r="0.6" fill="#D4AF5F" opacity="0.17"/>
      <circle cx="263" cy="248" r="0.8" fill="#D4AF5F" opacity="0.2"/>
      <circle cx="311" cy="261" r="0.5" fill="#D4AF5F" opacity="0.14"/>

      <circle cx="22" cy="301" r="0.6" fill="#D4AF5F" opacity="0.16"/>
      <circle cx="71" cy="314" r="0.9" fill="#D4AF5F" opacity="0.22"/>
      <circle cx="126" cy="298" r="0.5" fill="#D4AF5F" opacity="0.13"/>
      <circle cx="185" cy="308" r="0.7" fill="#D4AF5F" opacity="0.18"/>
      <circle cx="243" cy="295" r="1" fill="#D4AF5F" opacity="0.23"/>
      <circle cx="297" cy="316" r="0.6" fill="#D4AF5F" opacity="0.15"/>

      <!-- 4-çizgili asterism yıldızlar - dağınık -->
      <!-- Asterism 1 -->
      <g transform="translate(47, 36)" opacity="0.22">
        <line x1="0" y1="-4" x2="0" y2="4" stroke="#D4AF5F" stroke-width="0.6" stroke-linecap="round"/>
        <line x1="-4" y1="0" x2="4" y2="0" stroke="#D4AF5F" stroke-width="0.6" stroke-linecap="round"/>
        <line x1="-2.5" y1="-2.5" x2="2.5" y2="2.5" stroke="#D4AF5F" stroke-width="0.4" stroke-linecap="round"/>
        <line x1="2.5" y1="-2.5" x2="-2.5" y2="2.5" stroke="#D4AF5F" stroke-width="0.4" stroke-linecap="round"/>
      </g>

      <!-- Asterism 2 -->
      <g transform="translate(176, 76)" opacity="0.18">
        <line x1="0" y1="-5" x2="0" y2="5" stroke="#D4AF5F" stroke-width="0.7" stroke-linecap="round"/>
        <line x1="-5" y1="0" x2="5" y2="0" stroke="#D4AF5F" stroke-width="0.7" stroke-linecap="round"/>
        <line x1="-3" y1="-3" x2="3" y2="3" stroke="#D4AF5F" stroke-width="0.45" stroke-linecap="round"/>
        <line x1="3" y1="-3" x2="-3" y2="3" stroke="#D4AF5F" stroke-width="0.45" stroke-linecap="round"/>
        <circle cx="0" cy="0" r="1" fill="#D4AF5F"/>
      </g>

      <!-- Asterism 3 (büyük, ana) -->
      <g transform="translate(272, 148)" opacity="0.28">
        <line x1="0" y1="-7" x2="0" y2="7" stroke="#D4AF5F" stroke-width="0.8" stroke-linecap="round"/>
        <line x1="-7" y1="0" x2="7" y2="0" stroke="#D4AF5F" stroke-width="0.8" stroke-linecap="round"/>
        <line x1="-4.5" y1="-4.5" x2="4.5" y2="4.5" stroke="#D4AF5F" stroke-width="0.5" stroke-linecap="round"/>
        <line x1="4.5" y1="-4.5" x2="-4.5" y2="4.5" stroke="#D4AF5F" stroke-width="0.5" stroke-linecap="round"/>
        <circle cx="0" cy="0" r="1.5" fill="#D4AF5F"/>
      </g>

      <!-- Asterism 4 -->
      <g transform="translate(94, 192)" opacity="0.2">
        <line x1="0" y1="-4" x2="0" y2="4" stroke="#D4AF5F" stroke-width="0.6" stroke-linecap="round"/>
        <line x1="-4" y1="0" x2="4" y2="0" stroke="#D4AF5F" stroke-width="0.6" stroke-linecap="round"/>
        <line x1="-2.5" y1="-2.5" x2="2.5" y2="2.5" stroke="#D4AF5F" stroke-width="0.4" stroke-linecap="round"/>
        <line x1="2.5" y1="-2.5" x2="-2.5" y2="2.5" stroke="#D4AF5F" stroke-width="0.4" stroke-linecap="round"/>
      </g>

      <!-- Asterism 5 -->
      <g transform="translate(220, 268)" opacity="0.24">
        <line x1="0" y1="-5" x2="0" y2="5" stroke="#D4AF5F" stroke-width="0.7" stroke-linecap="round"/>
        <line x1="-5" y1="0" x2="5" y2="0" stroke="#D4AF5F" stroke-width="0.7" stroke-linecap="round"/>
        <line x1="-3" y1="-3" x2="3" y2="3" stroke="#D4AF5F" stroke-width="0.45" stroke-linecap="round"/>
        <line x1="3" y1="-3" x2="-3" y2="3" stroke="#D4AF5F" stroke-width="0.45" stroke-linecap="round"/>
        <circle cx="0" cy="0" r="1" fill="#D4AF5F"/>
      </g>

      <!-- Asterism 6 -->
      <g transform="translate(148, 314)" opacity="0.18">
        <line x1="0" y1="-4" x2="0" y2="4" stroke="#D4AF5F" stroke-width="0.6" stroke-linecap="round"/>
        <line x1="-4" y1="0" x2="4" y2="0" stroke="#D4AF5F" stroke-width="0.6" stroke-linecap="round"/>
        <line x1="-2.5" y1="-2.5" x2="2.5" y2="2.5" stroke="#D4AF5F" stroke-width="0.4" stroke-linecap="round"/>
        <line x1="2.5" y1="-2.5" x2="-2.5" y2="2.5" stroke="#D4AF5F" stroke-width="0.4" stroke-linecap="round"/>
      </g>

      <!-- Sacred geometry - çok ince çember çiftleri -->
      <circle cx="160" cy="160" r="55" stroke="#8B75C6" stroke-width="0.3" opacity="0.06"/>
      <circle cx="160" cy="160" r="80" stroke="#8B75C6" stroke-width="0.25" opacity="0.04"/>

      <!-- İnce birleştirme çizgileri (takımyıldız etkisi) -->
      <line x1="89" y1="72" x2="118" y2="105" stroke="#D4AF5F" stroke-width="0.3" opacity="0.1" stroke-linecap="round"/>
      <line x1="118" y1="105" x2="133" y2="167" stroke="#D4AF5F" stroke-width="0.3" opacity="0.08" stroke-linecap="round"/>
      <line x1="199" y1="152" x2="218" y2="205" stroke="#D4AF5F" stroke-width="0.3" opacity="0.09" stroke-linecap="round"/>
      <line x1="272" y1="148" x2="259" y2="171" stroke="#D4AF5F" stroke-width="0.3" opacity="0.1" stroke-linecap="round"/>
      <line x1="47" y1="36" x2="18" y2="24" stroke="#D4AF5F" stroke-width="0.3" opacity="0.08" stroke-linecap="round"/>
      <line x1="148" y1="257" x2="158" y2="219" stroke="#D4AF5F" stroke-width="0.3" opacity="0.09" stroke-linecap="round"/>

    </pattern>
  </defs>
  <rect width="320" height="320" fill="url(#stars)"/>
</svg>
